<svg id="katman_1" data-name="katman 1" xmlns="http://www.w3.org/2000/svg" viewBox="0 0 147.58 237.02"><defs><style>.cls-1{fill:#fff;}.cls-2{fill:#271a54;}</style></defs><title>location-green</title><path class="cls-1" d="M296.88,539a17.47,17.47,0,0,0,6.56.32c15.88-2.31,23.77-27.22,35.29-60.47,5.18-14.93,13.56-38.68,24.95-68.95l-131.09.51c26.18,63.19,46.83,109.34,53.6,120,1.51,2.37,5,7.73,10.7,8.63" transform="translate(-224.21 -302.44)"/><path class="cls-1" d="M371.76,378.16a73.79,73.79,0,1,1-71.83-75.69h0a73.78,73.78,0,0,1,71.82,75.69" transform="translate(-224.21 -302.44)"/><path class="cls-1" d="M296.88,539a17.47,17.47,0,0,0,6.56.32c15.88-2.31,23.77-27.22,35.29-60.47,5.18-14.93,13.56-38.68,24.95-68.95l-131.09.51c26.18,63.19,46.83,109.34,53.6,120,1.51,2.37,5,7.73,10.7,8.63" transform="translate(-224.21 -302.44)"/><path class="cls-1" d="M371.76,378.16a73.79,73.79,0,1,1-71.83-75.69h0a73.78,73.78,0,0,1,71.82,75.69" transform="translate(-224.21 -302.44)"/><path class="cls-2" d="M335,377.19a37,37,0,1,1-36-38,37,37,0,0,1,36,38v0" transform="translate(-224.21 -302.44)"/></svg>