<svg version="1.1" id="katman_1" xmlns="http://www.w3.org/2000/svg" x="0" y="0" viewBox="0 0 729.2 189.8" xml:space="preserve"><style/><linearGradient id="SVGID_1_" gradientUnits="userSpaceOnUse" x1="718.5" y1="-171.935" x2="863.21" y2="-171.935" gradientTransform="matrix(1 0 0 -1 -718.5 -82.55)"><stop offset="0" stop-color="#271a54"/><stop offset="1" stop-color="#ff544f"/></linearGradient><path d="M144.7 162.6l-8.2-108.3v-.1c-.7-7.4-6.8-13-14.2-13h-13v-3.6C109 16.9 91.9.3 71.2.6c-20.3.3-36.6 16.6-37 36.9l-.1 69.2h.1c-.1 1.1-.1 2.2-.1 3.4 0 21.9 17.8 39.8 39.7 39.8 21.9 0 39.8-17.8 39.8-39.7 0-21.9-17.8-39.8-39.7-39.8-9.6 0-18.8 3.4-26.1 9.7l.1-42.5c.7-13.2 12.1-23.3 25.3-22.5 12.1.7 21.8 10.4 22.5 22.5v3.6H66c-3.8 0-6.8 3-6.8 6.8 0 3.7 3.1 6.8 6.8 6.8h56.2c.4 0 .7.3.7.6l8.2 108.3v.1c0 .2 0 .4-.2.5-.1.2-.3.3-.6.3h-116c-.4 0-.7-.3-.7-.7v-.1L22 48.5c.3-3.7-2.5-7-6.3-7.3h-.5c-3.6 0-6.5 2.7-6.8 6.3L0 162.7c-.7 7.9 5.2 14.8 13.1 15.5h117.3c7.9 0 14.3-6.4 14.3-14.3v-1.3zM73.8 83.9c14.4 0 26.2 11.7 26.2 26.2 0 14.4-11.7 26.2-26.2 26.2-14.4 0-26.2-11.7-26.2-26.2s11.7-26.2 26.2-26.2z" fill="url(#SVGID_1_)"/><path d="M201.2 78c4.6 0 9 .9 13 2.7 4 1.8 7.4 4.2 10.2 7.2s4.9 6.6 6.5 10.8c1.6 4.2 2.4 8.6 2.4 13.3 0 4.7-.8 9.1-2.4 13.3-1.6 4.2-3.8 7.8-6.5 10.8-2.8 3-6.2 5.4-10.2 7.2s-8.3 2.7-13 2.7c-4.9 0-9.2-.9-12.9-2.8-3.7-1.9-6.8-4.6-9.3-8v3.3c0 1.9-.7 3.5-2 4.9-1.3 1.4-3 2-4.9 2-1.9 0-3.5-.7-4.9-2-1.3-1.4-2-3-2-4.9V51.6c0-1.9.7-3.5 2-4.9 1.3-1.4 3-2 4.9-2 1.9 0 3.5.7 4.9 2 1.3 1.4 2 3 2 4.9v37.3c2.5-3.4 5.6-6.1 9.3-8 3.7-1.9 8-2.9 12.9-2.9zm-10.7 53.9c2.5 1.1 5.2 1.7 8.1 1.7 2.9 0 5.6-.6 8.1-1.7s4.7-2.7 6.5-4.6c1.8-2 3.2-4.2 4.2-6.9 1-2.6 1.5-5.4 1.5-8.3s-.5-5.7-1.5-8.3-2.4-4.9-4.2-6.9c-1.8-1.9-3.9-3.5-6.5-4.6-2.5-1.1-5.2-1.7-8.1-1.7-2.9 0-5.6.6-8.1 1.7s-4.7 2.7-6.5 4.6c-1.8 2-3.2 4.2-4.2 6.9s-1.5 5.4-1.5 8.3.5 5.7 1.5 8.3c1 2.6 2.4 4.9 4.2 6.9s4 3.4 6.5 4.6zm85-53.9c9.6 0 16.6 2.1 21 6.3 4.4 4.2 6.6 10.8 6.6 19.9v34.3c0 1.9-.7 3.5-2 4.9-1.3 1.4-3 2-4.9 2-1.9 0-3.5-.7-4.9-2-1.3-1.4-2-3-2-4.9v-4c-2.2 3.8-5.2 6.6-8.9 8.6s-7.9 2.9-12.5 2.9c-2.4 0-4.8-.3-7-.8s-4.3-1.4-6.3-2.5-3.7-2.5-5.1-4.1c-1.4-1.6-2.6-3.6-3.4-5.8-.8-2.3-1.3-4.8-1.3-7.5 0-4.4 1.2-8.2 3.6-11.4 2.4-3.2 5.7-5.7 9.8-7.3 4.1-1.6 8.8-2.5 14.1-2.5 5.4 0 11.1 1.1 17 3.4v-2.6c0-4.9-1.3-8.5-3.9-10.9-2.6-2.4-6.8-3.6-12.6-3.6-4.5 0-8.8.9-12.8 2.7-2 .9-3.4 1.4-4.2 1.5-.5.1-1.1.2-1.7.2-1.4 0-2.7-.5-3.7-1.5-1.1-1-1.6-2.4-1.6-4.1 0-2.7 1.6-4.9 4.9-6.5 2.7-1.3 5.9-2.4 9.7-3.3s7.9-1.4 12.1-1.4zm-5.1 56.9c2.5 0 5-.4 7.2-1.2 2.3-.8 4.2-1.9 6-3.4s3.1-3.4 4.1-5.7 1.5-4.9 1.5-7.8c-5.1-2.4-10.3-3.5-15.6-3.5-5.1 0-9 .9-11.5 2.8s-3.8 4.6-3.8 8.3c0 3.4 1.1 6 3.2 7.8s5.2 2.7 8.9 2.7zm101.9-54.2c1.3-1.4 3-2 4.9-2s3.5.7 4.9 2c1.3 1.4 2 3 2 4.9v53.9c0 6.6-1.4 12.4-4.1 17.2s-6.7 8.6-12 11.2c-5.3 2.6-11.5 3.9-18.8 3.9-7.6 0-14.4-1.3-20.6-4-1.2-.5-2.1-1.3-2.8-2.3-.7-1.1-1.1-2.2-1.1-3.5 0-1.8.6-3.3 1.9-4.6 1.3-1.3 2.8-1.9 4.6-1.9.8 0 1.6.1 2.3.4 5 1.9 10.1 2.8 15.4 2.8 6.9 0 12.2-1.6 16-4.9 3.7-3.3 5.6-8.1 5.6-14.4v-8.1c-2.5 3-5.6 5.3-9.2 7-3.6 1.6-7.8 2.5-12.3 2.5-4.5 0-8.7-.8-12.6-2.4-3.9-1.6-7.2-3.8-10-6.6-2.7-2.8-4.9-6.1-6.5-10s-2.4-8-2.4-12.3c0-4.4.8-8.5 2.4-12.3 1.6-3.9 3.7-7.2 6.5-10 2.7-2.8 6.1-5 10-6.6 3.9-1.6 8.1-2.4 12.6-2.4 4.6 0 8.7.8 12.3 2.5 3.6 1.6 6.7 4 9.2 7v-1.9c-.2-2.1.5-3.7 1.8-5.1zm-30.9 45.4c3 1.5 6.3 2.3 10 2.3s7-.8 10-2.3c3-1.5 5.3-3.7 7-6.6 1.7-2.9 2.6-6.3 2.6-10.1s-.9-7.2-2.6-10.1c-1.7-2.9-4.1-5.1-7-6.6-3-1.5-6.3-2.3-10-2.3s-7 .8-10 2.3c-3 1.5-5.3 3.7-7 6.6-1.7 2.9-2.6 6.3-2.6 10.1s.9 7.2 2.6 10.1c1.7 2.9 4 5.1 7 6.6z" fill="#271a54"/><path d="M418.5 97.4c0 .7.1 1.4.4 2 .3.6.8 1.1 1.4 1.6.7.5 1.3.9 2 1.2.6.3 1.6.7 2.8 1 1.2.4 2.2.6 3 .8.8.2 2 .5 3.5.8 2.1.5 3.7.9 4.8 1.1s2.7.7 4.6 1.4c2 .6 3.5 1.3 4.7 1.9 1.1.6 2.4 1.4 3.9 2.5s2.6 2.2 3.3 3.4c.8 1.2 1.4 2.7 2 4.4.6 1.7.8 3.6.8 5.7 0 3.5-.7 6.6-2.1 9.3-1.4 2.7-3.4 4.9-6 6.5-2.6 1.7-5.6 2.9-9 3.7s-7.3 1.2-11.5 1.2c-8.3 0-15.1-1.1-20.5-3.4-1.2-.5-2.1-1.2-2.8-2.3-.7-1.1-1.1-2.2-1.1-3.5 0-1.8.6-3.3 1.8-4.5 1.2-1.2 2.7-1.8 4.6-1.8 1.3 0 2.8.3 4.7.8 1.8.5 4 1 6.4 1.6 2.4.5 4.9.8 7.6.8 9.3 0 14-2.4 14-7.1 0-.8-.1-1.6-.4-2.2-.3-.7-.8-1.3-1.6-1.8-.8-.6-1.5-1-2-1.4s-1.6-.8-3-1.2c-1.5-.5-2.5-.8-3.1-.9-.6-.2-1.9-.5-3.7-1-2.9-.7-5.1-1.3-6.6-1.8s-3.5-1.2-6-2.3c-2.5-1.1-4.3-2.3-5.6-3.5-1.3-1.2-2.4-2.9-3.5-5-1-2.1-1.5-4.5-1.5-7.2 0-3.2.7-6.1 2.1-8.7 1.4-2.6 3.3-4.7 5.7-6.3 2.4-1.6 5.2-2.9 8.4-3.7 3.2-.9 6.6-1.3 10.3-1.3 7.2 0 13.3 1.1 18.3 3.2 3.1 1.3 4.7 3.5 4.7 6.4 0 1.8-.6 3.2-1.7 4.3-1.2 1.1-2.7 1.7-4.6 1.7-1.3 0-2.7-.3-4.4-.8-1.7-.5-3.6-1.1-5.7-1.6s-4.3-.8-6.5-.8c-2.3 0-4.3.2-6 .6-1.7.4-3 .9-3.9 1.6-.9.7-1.6 1.4-2 2.2s-1 1.4-1 2.4zm88.8 34.3c1.7 0 3.2.5 4.3 1.6s1.7 2.5 1.7 4.2c0 3.2-1.8 5.4-5.3 6.7-3.3 1.2-7 1.8-11.1 1.8-1.8 0-3.6-.2-5.3-.5-1.7-.3-3.5-.8-5.2-1.5-1.7-.7-3.3-1.6-4.8-2.8-1.5-1.2-2.8-2.6-3.9-4.2s-2-3.6-2.7-6c-.6-2.4-1-5-1-7.8V91.7h-5.9c-1.7 0-3.2-.6-4.4-1.8-1.2-1.2-1.8-2.7-1.8-4.4 0-1.7.6-3.2 1.8-4.4 1.2-1.2 2.7-1.8 4.4-1.8h5.9V67.2c0-1.9.7-3.5 2-4.9 1.3-1.3 3-2 4.9-2s3.5.7 4.9 2 2 3 2 4.9v12.1h16.8c1.7 0 3.2.6 4.4 1.8 1.2 1.2 1.8 2.7 1.8 4.4 0 1.7-.6 3.2-1.8 4.4s-2.7 1.8-4.4 1.8h-16.8V121c0 4 1 7 3.1 9 2 2 4.7 2.9 8 2.9 1.9 0 3.7-.2 5.5-.7 1-.4 2.1-.5 2.9-.5zM551.8 78c9.6 0 16.6 2.1 21 6.3 4.4 4.2 6.6 10.8 6.6 19.9v34.3c0 1.9-.7 3.5-2 4.9-1.3 1.4-3 2-4.9 2-1.9 0-3.5-.7-4.9-2-1.3-1.4-2-3-2-4.9v-4c-2.2 3.8-5.2 6.6-8.9 8.6s-7.9 2.9-12.5 2.9c-2.4 0-4.8-.3-7-.8s-4.3-1.4-6.3-2.5-3.7-2.5-5.1-4.1-2.6-3.6-3.4-5.8c-.8-2.3-1.3-4.8-1.3-7.5 0-4.4 1.2-8.2 3.6-11.4 2.4-3.2 5.7-5.7 9.8-7.3 4.1-1.6 8.8-2.5 14.1-2.5 5.4 0 11.1 1.1 17 3.4v-2.6c0-4.9-1.3-8.5-3.9-10.9-2.6-2.4-6.8-3.6-12.6-3.6-4.5 0-8.8.9-12.8 2.7-2 .9-3.4 1.4-4.2 1.5-.5.1-1.1.2-1.7.2-1.4 0-2.7-.5-3.7-1.5-1.1-1-1.6-2.4-1.6-4.1 0-2.7 1.6-4.9 4.9-6.5 2.7-1.3 5.9-2.4 9.7-3.3s7.9-1.4 12.1-1.4zm-5 56.9c2.5 0 5-.4 7.2-1.2 2.3-.8 4.2-1.9 6-3.4s3.1-3.4 4.1-5.7c1-2.3 1.5-4.9 1.5-7.8-5.1-2.4-10.3-3.5-15.6-3.5-5.1 0-9 .9-11.5 2.8s-3.8 4.6-3.8 8.3c0 3.4 1.1 6 3.2 7.8 2.2 1.8 5.1 2.7 8.9 2.7zm62.5-37.5c0 .7.1 1.4.4 2 .3.6.8 1.1 1.4 1.6.7.5 1.3.9 2 1.2.6.3 1.6.7 2.8 1 1.2.4 2.2.6 3 .8.8.2 2 .5 3.5.8 2.1.5 3.7.9 4.8 1.1 1.1.3 2.7.7 4.6 1.4 2 .6 3.5 1.3 4.7 1.9s2.4 1.4 3.9 2.5 2.6 2.2 3.4 3.4c.8 1.2 1.4 2.7 2 4.4s.8 3.6.8 5.7c0 3.5-.7 6.6-2.1 9.3-1.4 2.7-3.4 4.9-6 6.5s-5.6 2.9-9 3.7c-3.4.8-7.3 1.2-11.5 1.2-8.3 0-15.1-1.1-20.5-3.4-1.2-.5-2.1-1.2-2.8-2.3-.7-1.1-1.1-2.2-1.1-3.5 0-1.8.6-3.3 1.8-4.5 1.2-1.2 2.7-1.8 4.6-1.8 1.3 0 2.8.3 4.7.8 1.8.5 4 1 6.4 1.6 2.4.5 4.9.8 7.6.8 9.3 0 14-2.4 14-7.1 0-.8-.1-1.6-.4-2.2-.3-.7-.8-1.3-1.6-1.8-.8-.6-1.5-1-2-1.4-.6-.4-1.6-.8-3-1.2-1.5-.5-2.5-.8-3.1-.9-.6-.2-1.9-.5-3.7-1-2.9-.7-5.1-1.3-6.6-1.8s-3.5-1.2-6-2.3c-2.5-1.1-4.3-2.3-5.6-3.5-1.3-1.2-2.4-2.9-3.5-5-1-2.1-1.5-4.5-1.5-7.2 0-3.2.7-6.1 2.1-8.7s3.3-4.7 5.7-6.3c2.4-1.6 5.2-2.9 8.4-3.7 3.2-.9 6.6-1.3 10.3-1.3 7.2 0 13.3 1.1 18.3 3.2 3.1 1.3 4.7 3.5 4.7 6.4 0 1.8-.6 3.2-1.7 4.3-1.2 1.1-2.7 1.7-4.6 1.7-1.3 0-2.7-.3-4.4-.8s-3.6-1.1-5.7-1.6-4.3-.8-6.5-.8c-2.3 0-4.3.2-6 .6-1.7.4-3 .9-3.9 1.6s-1.6 1.4-2 2.2c-.8.6-1.1 1.4-1.1 2.4zM695.2 78c3.3 0 6.4.6 9.4 1.7s5.6 2.7 7.9 4.7 4.1 4.6 5.5 7.6c1.4 3.1 2 6.4 2 10.1v36.2c0 1.9-.7 3.5-2 4.9-1.3 1.4-3 2-4.9 2-1.9 0-3.5-.7-4.9-2-1.3-1.4-2-3-2-4.9V108c0-3.1-.4-5.8-1.2-8.1-.8-2.3-1.9-4-3.4-5.3-1.4-1.3-3-2.2-4.7-2.7-1.7-.6-3.6-.9-5.7-.9-1.5 0-3 .2-4.5.5s-2.9.9-4.4 1.8c-1.5.8-2.7 1.9-3.8 3.1-1.1 1.3-2 2.9-2.6 4.9-.7 2-1 4.2-1 6.7v30.3c0 1.9-.7 3.5-2 4.9-1.3 1.4-3 2-4.9 2s-3.5-.7-4.9-2c-1.3-1.4-2-3-2-4.9V51.6c0-1.9.7-3.5 2-4.9 1.3-1.4 3-2 4.9-2s3.5.7 4.9 2c1.3 1.4 2 3 2 4.9v36.9c.7-1.3 1.6-2.5 2.7-3.7s2.4-2.2 4-3.3 3.6-1.9 5.9-2.5c2.4-.7 4.9-1 7.7-1z" fill="#ec4f4f"/></svg>