<svg xmlns="http://www.w3.org/2000/svg" width="512" height="512" viewBox="0 0 32 32"><path xmlns="http://www.w3.org/2000/svg" d="M26 32H6a6 6 0 01-6-6V6a6 6 0 016-6h20a6 6 0 016 6v20a6 6 0 01-6 6z" fill="#271a54" data-original="#271a54"/><path xmlns="http://www.w3.org/2000/svg" d="M23.646 11.953l.02.13a2.03 2.03 0 00-1.379-1.408l-.014-.003c-1.247-.339-6.266-.339-6.266-.339s-5.007-.006-6.266.339a2.027 2.027 0 00-1.389 1.397l-.003.014c-.466 2.434-.469 5.358.021 7.965l-.021-.132a2.03 2.03 0 001.379 1.408l.014.003c1.246.339 6.266.339 6.266.339s5.006 0 6.266-.339a2.027 2.027 0 001.389-1.397l.003-.014c.213-1.132.334-2.434.334-3.765l-.001-.147.001-.154c0-1.332-.121-2.634-.354-3.897zm-9.241 6.481v-4.862l4.178 2.435z" fill="#fff" data-original="#fff"/></svg>